<svg xmlns="http://www.w3.org/2000/svg" width="512" height="512" viewBox="0 0 135.467 135.467"><circle cx="67.733" cy="67.733" r="66.146" style="display:inline;opacity:1;fill:#000;stroke-width:2.90681;stroke-linecap:round;stroke-linejoin:round"/><circle cx="67.733" cy="67.733" r="62.839" style="display:inline;opacity:1;fill:#fff;stroke-width:2.76147;stroke-linecap:round;stroke-linejoin:round"/><path d="M256 13.377c-12.16.58-33.33 1.848-45.584 4.133-17.811 3.32-46.793 13.283-46.793 13.283s4.83 2.716 9.66 9.357c4.83 6.642 6.037 12.377 6.037 12.377s18.717-4.528 36.83-.603c15.041 3.259 33.838 14.728 39.85 18.564 6.012-3.836 24.809-15.305 39.85-18.564 18.113-3.925 36.83.603 36.83.603s1.207-5.735 6.037-12.377c4.83-6.641 9.66-9.357 9.66-9.357s-28.982-9.962-46.793-13.283c-12.254-2.285-33.423-3.554-45.584-4.133zm-102.34 50.32s-37.433 16.001-49.207 21.133c-11.773 5.132-41.36 28.68-41.36 28.68s-22.64 25.961-32.904 50.414c-10.264 24.453-16.605 80.303-16.605 80.303s6.945 2.113 14.492 7.85c7.547 5.735 13.283 13.583 13.283 13.583s10.565-29.585 20.528-43.773c9.962-14.189 31.697-32.303 31.697-32.303s-4.528-49.206 4.227-75.168c8.754-25.962 55.85-50.719 55.85-50.719zm204.68 0s47.095 24.757 55.85 50.719c8.754 25.962 4.226 75.168 4.226 75.168s21.735 18.114 31.697 32.303c9.963 14.188 20.528 43.773 20.528 43.773s5.736-7.848 13.283-13.584 14.492-7.85 14.492-7.85-6.341-55.85-16.605-80.302c-10.265-24.453-32.905-50.414-32.905-50.414s-29.586-23.548-41.36-28.68c-11.773-5.132-49.206-21.133-49.206-21.133zM256 98.686l-10.293 56.369-69.059 51.455-51.365-.926 42.844 15.963 30.504 88.123-23.838 38.707 27.623-27.773h107.168l27.623 27.773-23.838-38.707 30.504-88.123 42.844-15.963-51.365.926-69.059-51.455L256 98.685zM45.283 300.377s7.547 49.509 9.66 58.264c2.114 8.754 16 53.736 16 53.736s32.604 38.039 52.227 47.7c19.623 9.66 54.037 26.866 54.037 26.866l25.36-27.47s-24.454-17.812-32.303-30.19c-7.85-12.377-16.905-41.056-16.905-41.056S98.415 387.02 80 368.303c-18.415-18.717-34.717-67.926-34.717-67.926zm421.434 0S450.415 349.586 432 368.303s-73.36 19.924-73.36 19.924-9.055 28.679-16.904 41.056c-7.849 12.378-32.302 30.19-32.302 30.19l25.359 27.47s34.414-17.206 54.037-26.867c19.623-9.66 52.227-47.699 52.227-47.699s13.886-44.982 16-53.736c2.113-8.755 9.66-58.264 9.66-58.264z" style="display:inline;opacity:1;fill:#000;stroke-width:10.0119;stroke-linecap:round;stroke-linejoin:round" transform="scale(.26458)"/><path d="m262.824 230.781-82.658 197.463s26.714-13.348 54.5-27.078v107.035h56.316V401.166c27.787 13.73 54.5 27.078 54.5 27.078z" style="display:inline;opacity:1;fill:#fff;fill-opacity:1;stroke:none;stroke-width:13.8294;stroke-linecap:round;stroke-linejoin:round" transform="scale(.26458) rotate(-30 327.45 110.28)"/><path d="m69.539 68.97-15.814 37.78s5.11-2.555 10.427-5.181v30.822h10.774v-30.822a2962.97 2962.97 0 0 1 10.427 5.18z" style="display:inline;opacity:1;fill:#000;fill-opacity:1;stroke:none;stroke-width:2.64583;stroke-linecap:round;stroke-linejoin:round" transform="rotate(-30 86.638 29.178)"/></svg>